<?xml version="1.0" encoding="UTF-8"?>
<svg id="Warstwa_2" data-name="Warstwa 2" xmlns="http://www.w3.org/2000/svg" viewBox="0 0 1234 981.36">
  <defs>
    <style>
      .cls-1 {
        fill: #1d1d1b;
      }
    </style>
  </defs>
  <g id="Warstwa_1-2" data-name="Warstwa 1">
    <path class="cls-1" d="M436.25,796.28c-7.24,33.97-20.69,64.03-40.27,90.18-19.57,26.19-46.15,46.74-79.72,61.79-30.8,13.76-70.48,20.92-118.2,22.06v.57h-116.89c-44.84,0-81.18-36.35-81.18-81.18h0c0-44.83,36.34-81.18,81.18-81.18h66.56c42.08-.8,69.68-12.23,82.08-34.76,12.86-23.38,19.31-52.86,19.31-88.52V99.02C249.13,44.33,293.46,0,348.14,0h0c54.69,0,99.02,44.33,99.02,99.02v587.9c0,38.98-3.61,75.42-10.91,109.36ZM728.33,381.98V92.65C728.33,41.59,686.94.2,635.88.2s-92.5,41.39-92.5,92.45v785.73c0,51.07,41.43,92.5,92.5,92.5s92.45-41.43,92.45-92.5v-241.82l338.09,317.63c36.22,36.22,95.03,36.22,131.25,0,36.27-36.27,36.27-95.03,0-131.3l-469.34-440.91ZM991.57,373.92l215.22-215.27c36.27-36.22,36.27-94.98,0-131.25-36.22-36.27-95.03-36.27-131.25,0l-215.27,215.27c-36.22,36.22-36.22,95.03,0,131.25s95.03,36.27,131.3,0Z"/>
  </g>
</svg>